<svg xmlns="http://www.w3.org/2000/svg" xmlns:xlink="http://www.w3.org/1999/xlink" viewBox="0 0 538.58 491.5"><defs><style>.cls-1,.cls-100,.cls-101,.cls-102,.cls-103,.cls-104,.cls-105,.cls-25,.cls-26,.cls-31,.cls-33,.cls-34,.cls-35,.cls-5,.cls-59,.cls-6,.cls-7,.cls-74,.cls-76,.cls-77,.cls-78,.cls-8,.cls-92,.cls-93,.cls-94,.cls-95,.cls-96,.cls-97,.cls-98,.cls-99{fill:none;}.cls-1,.cls-5,.cls-51,.cls-59{stroke:#231815;}.cls-1,.cls-100,.cls-101,.cls-102,.cls-103,.cls-104,.cls-105,.cls-25,.cls-26,.cls-31,.cls-33,.cls-34,.cls-35,.cls-5,.cls-51,.cls-59,.cls-6,.cls-7,.cls-74,.cls-76,.cls-77,.cls-78,.cls-8,.cls-92,.cls-93,.cls-94,.cls-95,.cls-96,.cls-97,.cls-98,.cls-99{stroke-miterlimit:10;}.cls-1,.cls-25,.cls-26,.cls-31,.cls-33,.cls-34,.cls-35,.cls-6,.cls-7,.cls-76,.cls-77,.cls-78,.cls-8{stroke-width:0.5px;}.cls-2,.cls-28,.cls-3,.cls-32,.cls-36,.cls-39,.cls-4,.cls-44,.cls-45,.cls-50,.cls-51,.cls-52,.cls-53,.cls-58,.cls-86,.cls-90,.cls-91{fill:#231815;}.cls-3,.cls-40,.cls-41,.cls-42,.cls-43,.cls-86{font-size:7px;}.cls-110,.cls-13,.cls-14,.cls-16,.cls-20,.cls-28,.cls-3,.cls-32,.cls-36,.cls-39,.cls-40,.cls-41,.cls-44,.cls-46,.cls-48,.cls-50,.cls-52,.cls-54,.cls-55,.cls-58,.cls-61,.cls-63,.cls-65,.cls-67,.cls-69,.cls-71,.cls-73,.cls-75,.cls-86,.cls-89{font-family:TimesNewRomanPSMT, Times New Roman;}.cls-32,.cls-4{font-size:9px;}.cls-108,.cls-109,.cls-17,.cls-19,.cls-22,.cls-24,.cls-27,.cls-4,.cls-42,.cls-43,.cls-45,.cls-53,.cls-60,.cls-62,.cls-64,.cls-66,.cls-68,.cls-70,.cls-72,.cls-84,.cls-88,.cls-9,.cls-91{font-family:TimesNewRomanPS-ItalicMT, Times New Roman;}.cls-10,.cls-108,.cls-109,.cls-11,.cls-12,.cls-17,.cls-21,.cls-22,.cls-24,.cls-27,.cls-4,.cls-43,.cls-47,.cls-49,.cls-56,.cls-57,.cls-84,.cls-91{font-style:italic;}.cls-5{stroke-width:0.75px;}.cls-25,.cls-26,.cls-31,.cls-6,.cls-7,.cls-8{stroke:#036eb7;}.cls-7{stroke-dasharray:5.04 2.01;}.cls-8{stroke-dasharray:4.88 1.95;}.cls-109,.cls-16,.cls-19,.cls-28,.cls-9{font-size:8px;}.cls-109,.cls-15,.cls-16,.cls-41,.cls-60,.cls-62,.cls-64,.cls-66,.cls-68,.cls-70,.cls-72,.cls-84,.cls-88,.cls-9{fill:#e50012;}.cls-11,.cls-13,.cls-14,.cls-18,.cls-21,.cls-23,.cls-24,.cls-27,.cls-29{font-size:4.44px;}.cls-12{letter-spacing:0em;}.cls-13,.cls-21,.cls-29{letter-spacing:0em;}.cls-19{fill:#040000;}.cls-22{letter-spacing:0em;}.cls-23{letter-spacing:0em;}.cls-25{stroke-dasharray:4.8 1.92;}.cls-26{stroke-dasharray:4.93 1.97;}.cls-27{letter-spacing:0em;}.cls-108,.cls-30{letter-spacing:0em;}.cls-31{stroke-dasharray:5.02 2.01;}.cls-100,.cls-101,.cls-102,.cls-33,.cls-92,.cls-93{stroke:#00993e;}.cls-103,.cls-104,.cls-34,.cls-97,.cls-98,.cls-99{stroke:#ea6000;}.cls-105,.cls-35,.cls-94,.cls-95,.cls-96{stroke:#e3007f;}.cls-36,.cls-64{font-size:8px;}.cls-37,.cls-38,.cls-65{font-size:4.44px;}.cls-37,.cls-65{letter-spacing:0em;}.cls-39,.cls-91{font-size:8px;}.cls-40,.cls-42,.cls-43,.cls-75{fill:#e4007f;}.cls-44{font-size:11.45px;}.cls-45,.cls-50{font-size:6.78px;}.cls-46,.cls-48{font-size:3.77px;}.cls-47{letter-spacing:0em;}.cls-48{letter-spacing:0em;}.cls-49{letter-spacing:0em;}.cls-51,.cls-59,.cls-74{stroke-width:0.25px;}.cls-52{font-size:11.1px;}.cls-53,.cls-58{font-size:6.57px;}.cls-54{font-size:3.65px;}.cls-55,.cls-57{letter-spacing:0em;}.cls-56{letter-spacing:0em;}.cls-60{font-size:8px;}.cls-61{font-size:4.44px;letter-spacing:0em;}.cls-62{font-size:8px;}.cls-63{font-size:4.44px;}.cls-66{font-size:8px;}.cls-67{font-size:4.44px;}.cls-68{font-size:8px;}.cls-69,.cls-85{font-size:4.44px;}.cls-70{font-size:8px;}.cls-71{font-size:4.44px;letter-spacing:0em;}.cls-72{font-size:8px;}.cls-73{font-size:4.44px;}.cls-74{stroke:#e50012;}.cls-75{font-size:21.04px;}.cls-76{stroke:#9e9e9f;}.cls-77,.cls-78{stroke:#f39800;}.cls-78{stroke-dasharray:4.96 1.98;}.cls-79{fill:#d60050;}.cls-80{letter-spacing:-0.02em;}.cls-81{letter-spacing:-0.07em;}.cls-82{letter-spacing:0em;}.cls-83{letter-spacing:-0.02em;}.cls-84{font-size:8px;}.cls-85{letter-spacing:0em;}.cls-86{letter-spacing:-0.07em;}.cls-87{letter-spacing:0em;}.cls-88{font-size:8px;}.cls-89{font-size:4.44px;}.cls-90{font-size:12px;font-family:ArialMT, Arial;}.cls-100,.cls-101,.cls-102,.cls-103,.cls-104,.cls-105,.cls-92,.cls-93,.cls-94,.cls-95,.cls-96,.cls-97,.cls-98,.cls-99{stroke-width:1.5px;}.cls-93{stroke-dasharray:4.81 1.93;}.cls-95{stroke-dasharray:5.06 2.02;}.cls-96{stroke-dasharray:4.62 1.85;}.cls-98{stroke-dasharray:4.89 1.95;}.cls-99{stroke-dasharray:4.86 1.95;}.cls-100{stroke-dasharray:4.94 1.97;}.cls-101{stroke-dasharray:5.14 2.06;}.cls-102{stroke-dasharray:4.9 1.96;}.cls-103{stroke-dasharray:5.09 2.04;}.cls-104{stroke-dasharray:4.78 1.91;}.cls-105{stroke-dasharray:5.07 2.03;}.cls-106{letter-spacing:-0.07em;}.cls-107{letter-spacing:-0.02em;}.cls-110{font-size:6px;}</style><symbol id="axis1" data-name="axis1" viewBox="0 0 167.3 110.16"><line class="cls-1" x1="13.9" y1="110.16" x2="13.9" y2="4.43"/><polygon class="cls-2" points="15.35 5.42 13.9 0 12.44 5.42 15.35 5.42"/><line class="cls-1" y1="96.95" x2="147.58" y2="96.95"/><polygon class="cls-2" points="146.59 98.4 152.01 96.95 146.59 95.5 146.59 98.4"/><text class="cls-3" transform="translate(7.93 16.33) rotate(-90)">Force</text><text class="cls-3" transform="translate(115.8 105.11)">Displacement</text><text class="cls-4" transform="translate(2.78 106.78)">O</text></symbol></defs><title>AllModels</title><g id="art-env"><g id="base-2" data-name="base"><path class="cls-5" d="M136.9,22.37h0c-77.54,18.93-75.51,40.7-86.4,82.38"/><line class="cls-5" x1="136.88" y1="22.37" x2="174.07" y2="55.67"/><line class="cls-5" x1="306.87" y1="22.37" x2="344.06" y2="55.67"/><line class="cls-6" x1="50.48" y1="104.75" x2="50.96" y2="102.3"/><line class="cls-7" x1="51.35" y1="100.32" x2="62.02" y2="45.97"/><line class="cls-6" x1="62.21" y1="44.99" x2="62.7" y2="42.53"/><line class="cls-6" x1="50.48" y1="43.17" x2="52.91" y2="42.58"/><line class="cls-8" x1="54.81" y1="42.13" x2="133.5" y2="23.18"/><line class="cls-6" x1="134.45" y1="22.95" x2="136.88" y2="22.37"/><polygon class="cls-6" points="102.7 27.77 112.99 25.67 102.7 25.67 102.7 27.77"/><polygon class="cls-6" points="158.47 38.3 153.63 34.1 158.47 34.1 158.47 38.3"/><text class="cls-9" transform="translate(85.86 29.03)"><tspan class="cls-10">R</tspan><tspan class="cls-11" x="4.89" y="0">1</tspan><tspan class="cls-12" x="7.11" y="0">K</tspan><tspan class="cls-13" x="12.45" y="0">0</tspan></text><text class="cls-9" transform="translate(160.3 38.76)"><tspan class="cls-10">K</tspan><tspan class="cls-14" x="5.34" y="0">d</tspan></text><polygon class="cls-6" points="328.45 38.3 323.62 34.1 328.45 34.1 328.45 38.3"/><text class="cls-9" transform="translate(330.29 38.76)"><tspan class="cls-10">K</tspan><tspan class="cls-14" x="5.34" y="0">d</tspan></text><circle class="cls-15" cx="50.48" cy="43.17" r="1.87"/><circle class="cls-15" cx="136.9" cy="22.37" r="1.87"/><text class="cls-16" transform="translate(54.52 35.07)">(0, <tspan class="cls-17" x="10.66" y="0">F</tspan><tspan class="cls-18" x="15.55" y="0">0</tspan><tspan x="17.77" y="0">)</tspan></text><text class="cls-16" transform="translate(139.77 20.5)">(<tspan class="cls-17" x="2.66" y="0">D</tspan><tspan class="cls-18" x="8.44" y="0">c</tspan><tspan x="10.41" y="0">, *)</tspan></text><polygon class="cls-6" points="217.17 88.6 215.64 96.5 217.17 96.5 217.17 88.6"/><polygon class="cls-6" points="376.06 90.1 374.53 98 376.06 98 376.06 90.1"/><text class="cls-19" transform="translate(219.39 96.24)"><tspan class="cls-10">K</tspan><tspan class="cls-14" x="5.34" y="0">0 </tspan><tspan class="cls-20" x="8.67" y="0">= </tspan><tspan class="cls-10" x="15.18" y="0">F</tspan><tspan class="cls-11" x="20.07" y="0">b</tspan><tspan class="cls-14" x="22.29" y="0">1 </tspan><tspan class="cls-10" x="25.62" y="0">/ D</tspan><tspan class="cls-21" x="35.63" y="0">b</tspan><tspan class="cls-14" x="37.85" y="0">1</tspan></text><polygon class="cls-6" points="57.24 88.6 55.71 96.5 57.24 96.5 57.24 88.6"/><text class="cls-9" transform="translate(58.76 96.24)"><tspan class="cls-10">K</tspan><tspan class="cls-14" x="5.34" y="0">0 </tspan></text><text class="cls-19" transform="translate(378.06 97.07)"><tspan class="cls-10">K</tspan><tspan class="cls-14" x="5.34" y="0">0 </tspan><tspan class="cls-20" x="8.67" y="0">= </tspan><tspan class="cls-10" x="15.18" y="0">F</tspan><tspan class="cls-14" x="20.07" y="0">1 </tspan><tspan class="cls-10" x="23.4" y="0">/ D</tspan><tspan class="cls-14" x="33.4" y="0">1</tspan></text><text class="cls-19" transform="translate(474.49 73.47)"><tspan class="cls-10">D</tspan><tspan class="cls-14" x="5.78" y="0">u </tspan><tspan class="cls-20" x="9.11" y="0">= </tspan><tspan class="cls-10" x="15.62" y="0">D</tspan><tspan class="cls-14" x="21.4" y="0">4</tspan></text><polyline class="cls-5" points="370.32 104.46 377.16 73.47 408.12 39.02 459.47 22.67 459.47 22.67 495.85 55.67"/><circle class="cls-15" cx="377.16" cy="73.47" r="1.87"/><circle class="cls-15" cx="459.42" cy="22.67" r="1.87"/><circle class="cls-15" cx="408.12" cy="39.02" r="1.87"/><circle class="cls-15" cx="495.85" cy="55.67" r="1.87"/><circle class="cls-15" cx="344.06" cy="55.67" r="1.87"/><circle class="cls-15" cx="174.07" cy="55.67" r="1.87"/><text class="cls-16" transform="translate(381.06 77.11)">(<tspan class="cls-17" x="2.66" y="0">D</tspan><tspan class="cls-18" x="8.44" y="0">1</tspan><tspan x="10.66" y="0">, </tspan><tspan class="cls-22" x="14.66" y="0">F</tspan><tspan class="cls-23" x="19.55" y="0">1</tspan><tspan x="21.77" y="0">)</tspan></text><text class="cls-16" transform="translate(432.09 20.5)">(<tspan class="cls-17" x="2.66" y="0">D</tspan><tspan class="cls-18" x="8.44" y="0">3</tspan><tspan x="10.66" y="0">, </tspan><tspan class="cls-22" x="14.66" y="0">F</tspan><tspan class="cls-23" x="19.55" y="0">3</tspan><tspan x="21.77" y="0">)</tspan></text><text class="cls-16" transform="translate(382.59 36.2)">(<tspan class="cls-17" x="2.66" y="0">D</tspan><tspan class="cls-18" x="8.44" y="0">2</tspan><tspan x="10.66" y="0">, </tspan><tspan class="cls-22" x="14.66" y="0">F</tspan><tspan class="cls-23" x="19.55" y="0">2</tspan><tspan x="21.77" y="0">)</tspan></text><text class="cls-16" transform="translate(474.49 64.93)">(<tspan class="cls-17" x="2.66" y="0">D</tspan><tspan class="cls-18" x="8.44" y="0">4</tspan><tspan x="10.66" y="0">, </tspan><tspan class="cls-22" x="14.66" y="0">F</tspan><tspan class="cls-23" x="19.55" y="0">4</tspan><tspan x="21.77" y="0">)</tspan></text><text class="cls-16" transform="translate(323.37 64.93)">(<tspan class="cls-17" x="2.66" y="0">D</tspan><tspan class="cls-24" x="8.44" y="0">u</tspan><tspan x="10.66" y="0">, </tspan><tspan class="cls-22" x="14.66" y="0">*</tspan><tspan x="18.67" y="0">)</tspan></text><text class="cls-16" transform="translate(153.28 64.93)">(<tspan class="cls-17" x="2.66" y="0">D</tspan><tspan class="cls-24" x="8.44" y="0">u</tspan><tspan x="10.66" y="0">, </tspan><tspan class="cls-17" x="14.66" y="0">*</tspan><tspan x="18.66" y="0">)</tspan></text><path class="cls-5" d="M306.87,22.47h0C246,34.79,220.24,58.75,210.11,104.86"/><line class="cls-6" x1="210.11" y1="104.86" x2="210.64" y2="102.41"/><line class="cls-25" x1="211.06" y1="100.54" x2="219.5" y2="62.13"/><line class="cls-6" x1="219.71" y1="61.19" x2="220.24" y2="58.75"/><line class="cls-6" x1="245.95" y1="34.79" x2="248.4" y2="34.3"/><line class="cls-26" x1="250.33" y1="33.91" x2="303.45" y2="23.16"/><line class="cls-6" x1="304.42" y1="22.97" x2="306.87" y2="22.47"/><text class="cls-16" transform="translate(279.42 19.61)">(<tspan class="cls-17" x="2.66" y="0">D</tspan><tspan class="cls-27" x="8.44" y="0">c</tspan><tspan x="10.42" y="0">, </tspan><tspan class="cls-17" x="14.42" y="0">F</tspan><tspan class="cls-24" x="19.3" y="0">c</tspan><tspan x="21.27" y="0">)</tspan></text><text class="cls-28" transform="translate(402.68 20.5)">(<tspan class="cls-17" x="2.66" y="0">D</tspan><tspan class="cls-27" x="8.44" y="0">c</tspan><tspan x="10.42" y="0">, </tspan><tspan class="cls-17" x="14.42" y="0">F</tspan><tspan class="cls-24" x="19.3" y="0">c</tspan><tspan x="21.27" y="0">)=</tspan></text><text class="cls-16" transform="translate(193.89 53.11)">(<tspan class="cls-17" x="2.66" y="0">D</tspan><tspan class="cls-24" x="8.44" y="0">b</tspan><tspan class="cls-29" x="10.66" y="0">1</tspan><tspan x="12.89" y="0">, </tspan><tspan class="cls-17" x="16.89" y="0">F</tspan><tspan class="cls-24" x="21.77" y="0">b</tspan><tspan class="cls-18" x="24" y="0">1</tspan><tspan class="cls-30" x="26.22" y="0">)</tspan></text><text class="cls-16" transform="translate(220.72 29.03)">(<tspan class="cls-17" x="2.66" y="0">D</tspan><tspan class="cls-24" x="8.44" y="0">b</tspan><tspan class="cls-29" x="10.66" y="0">2</tspan><tspan x="12.89" y="0">, </tspan><tspan class="cls-17" x="16.89" y="0">F</tspan><tspan class="cls-24" x="21.77" y="0">b</tspan><tspan class="cls-18" x="24" y="0">2</tspan><tspan class="cls-30" x="26.22" y="0">)</tspan></text><circle class="cls-15" cx="306.87" cy="22.47" r="1.87"/><line class="cls-6" x1="220.24" y1="58.75" x2="222.07" y2="57.05"/><line class="cls-31" x1="223.54" y1="55.68" x2="243.39" y2="37.18"/><line class="cls-6" x1="244.12" y1="36.5" x2="245.95" y2="34.79"/><circle class="cls-15" cx="220.24" cy="58.75" r="1.87"/><circle class="cls-15" cx="245.95" cy="34.79" r="1.87"/><text class="cls-32" transform="translate(74.47 131.34)">(1) Exponential model</text><text class="cls-32" transform="translate(234.99 131.34)">(2) Bézier curve model</text><text class="cls-32" transform="translate(385.5 131.34)">(3) Piece-wise linear model</text><use id="axis1-3" data-name="axis1" width="167.3" height="110.16" transform="translate(36.15 7.8)" xlink:href="#axis1"/><use id="axis1-6" data-name="axis1" width="167.3" height="110.16" transform="translate(196.11 7.8)" xlink:href="#axis1"/><use width="167.3" height="110.16" transform="translate(356.08 7.8)" xlink:href="#axis1"/></g></g><g id="our-hyst"><g id="caption"><line class="cls-33" x1="277.61" y1="236.59" x2="262.25" y2="285.7"/><line class="cls-34" x1="344.38" y1="230.96" x2="277.61" y2="236.59"/><line class="cls-35" x1="375.54" y1="187.91" x2="344.33" y2="230.96"/><line class="cls-33" x1="426.09" y1="240.33" x2="410.72" y2="289.44"/><line class="cls-34" x1="492.86" y1="234.7" x2="426.09" y2="240.33"/><line class="cls-35" x1="524.01" y1="191.66" x2="492.8" y2="234.7"/><path class="cls-1" d="M262.16,285.72l3.93-12.44c11.52-36.69,11.52-36.69,35-38.67l19.3-1.63c24-2,24-2,49.92-37.83l5.25-7.24"/><path class="cls-1" d="M410.63,289.46h0c12.46-39.57,23.51-49.81,48.84-51.94h0c24.67-2.09,43.44-16.76,64.54-45.86h0"/><circle class="cls-15" cx="265.37" cy="275.73" r="2.15"/><circle class="cls-15" cx="421.06" cy="256.38" r="2.15"/><circle class="cls-15" cx="277.61" cy="236.59" r="2.15"/><circle class="cls-2" cx="426.09" cy="240.33" r="2.15"/><circle class="cls-2" cx="311" cy="233.77" r="2.15"/><circle class="cls-15" cx="459.47" cy="237.52" r="2.15"/><circle class="cls-15" cx="318.05" cy="233.11" r="2.15"/><circle class="cls-15" cx="369.37" cy="196.42" r="2.15"/><circle class="cls-2" cx="375.54" cy="187.91" r="2.15"/><circle class="cls-15" cx="524.01" cy="191.66" r="2.15"/><circle class="cls-15" cx="501.98" cy="222.05" r="2.15"/><circle class="cls-15" cx="481.09" cy="235.74" r="2.15"/><circle class="cls-15" cx="437.93" cy="239.38" r="2.15"/><circle class="cls-15" cx="344.33" cy="230.96" r="2.15"/><circle class="cls-2" cx="492.86" cy="234.7" r="2.15"/><circle class="cls-15" cx="303.77" cy="234.44" r="2.15"/><circle class="cls-2" cx="262.16" cy="285.72" r="2.15"/><circle class="cls-15" cx="410.72" cy="289.44" r="2.15"/><text class="cls-36" transform="translate(414.47 295.69)">(<tspan class="cls-17" x="2.66" y="0">D</tspan><tspan class="cls-37" x="8.44" y="0">un</tspan><tspan class="cls-17" x="12.89" y="0">, F</tspan><tspan class="cls-37" x="21.77" y="0">un</tspan><tspan x="26.22" y="0">)</tspan></text><text class="cls-36" transform="translate(342.18 185.49)">(<tspan class="cls-17" x="2.66" y="0">D</tspan><tspan class="cls-38" x="8.44" y="0">tar</tspan><tspan class="cls-17" x="13.13" y="0">, F</tspan><tspan class="cls-38" x="22.02" y="0">tar</tspan><tspan x="26.7" y="0">)</tspan></text><text class="cls-36" transform="translate(56.48 423.17)">(<tspan class="cls-17" x="2.66" y="0">D</tspan><tspan class="cls-38" x="8.44" y="0">tar</tspan><tspan class="cls-17" x="13.13" y="0">, F</tspan><tspan class="cls-38" x="22.02" y="0">tar</tspan><tspan x="26.7" y="0">)</tspan></text><text class="cls-36" transform="translate(307.14 373.07)">(<tspan class="cls-17" x="2.66" y="0">D</tspan><tspan class="cls-38" x="8.44" y="0">tar</tspan><tspan class="cls-17" x="13.13" y="0">, F</tspan><tspan class="cls-38" x="22.02" y="0">tar</tspan><tspan x="26.7" y="0">)</tspan></text><text class="cls-36" transform="translate(474.12 398.17)">(<tspan class="cls-17" x="2.66" y="0">D</tspan><tspan class="cls-38" x="8.44" y="0">tar</tspan><tspan class="cls-17" x="13.13" y="0">, F</tspan><tspan class="cls-38" x="22.02" y="0">tar</tspan><tspan x="26.7" y="0">)</tspan></text><text class="cls-36" transform="translate(265.37 292.38)">(<tspan class="cls-17" x="2.66" y="0">D</tspan><tspan class="cls-37" x="8.44" y="0">un</tspan><tspan class="cls-17" x="12.89" y="0">, F</tspan><tspan class="cls-37" x="21.77" y="0">un</tspan><tspan x="26.22" y="0">)</tspan></text><text class="cls-36" transform="translate(148.59 355.72)">(<tspan class="cls-17" x="2.66" y="0">D</tspan><tspan class="cls-37" x="8.44" y="0">un</tspan><tspan class="cls-17" x="12.89" y="0">, F</tspan><tspan class="cls-37" x="21.77" y="0">un</tspan><tspan x="26.22" y="0">)</tspan></text><text class="cls-36" transform="translate(274.71 361.77)">(<tspan class="cls-17" x="2.66" y="0">D</tspan><tspan class="cls-37" x="8.44" y="0">un</tspan><tspan class="cls-17" x="12.89" y="0">, F</tspan><tspan class="cls-37" x="21.77" y="0">un</tspan><tspan x="26.22" y="0">)</tspan></text><text class="cls-36" transform="translate(391.88 438.81)">(<tspan class="cls-17" x="2.66" y="0">D</tspan><tspan class="cls-37" x="8.44" y="0">un</tspan><tspan class="cls-17" x="12.89" y="0">, F</tspan><tspan class="cls-37" x="21.77" y="0">un</tspan><tspan x="26.22" y="0">)</tspan></text><text class="cls-36" transform="translate(490.7 192.6)">(<tspan class="cls-17" x="2.66" y="0">D</tspan><tspan class="cls-38" x="8.44" y="0">tar</tspan><tspan class="cls-17" x="13.13" y="0">, F</tspan><tspan class="cls-38" x="22.02" y="0">tar</tspan><tspan x="26.7" y="0">)</tspan></text><text class="cls-36" transform="translate(237.03 237.31)">(<tspan class="cls-17" x="2.66" y="0">D</tspan><tspan class="cls-38" x="8.44" y="0">i1</tspan><tspan class="cls-17" x="11.9" y="0">, F</tspan><tspan class="cls-38" x="20.79" y="0">i1</tspan><tspan x="24.24" y="0">)</tspan></text><text class="cls-39" transform="translate(279.77 186.26)">For 0 &lt; c ≤1</text><text class="cls-40" transform="translate(231.93 260.57)">Length <tspan x="-7.97" y="7.58">proportion</tspan></text><text class="cls-41" transform="translate(275.46 264.52)">Bézier curve control points</text><text class="cls-39" transform="translate(433.08 187.91)">For 1 &lt; c &lt; 2</text><text class="cls-36" transform="translate(393.83 238.74)">(<tspan class="cls-17" x="2.66" y="0">D</tspan><tspan class="cls-38" x="8.44" y="0">i1</tspan><tspan class="cls-17" x="11.9" y="0">, F</tspan><tspan class="cls-38" x="20.79" y="0">i1</tspan><tspan x="24.24" y="0">)</tspan></text><text class="cls-36" transform="translate(344.38 240.13)">(<tspan class="cls-17" x="2.66" y="0">D</tspan><tspan class="cls-38" x="8.44" y="0">i2</tspan><tspan class="cls-17" x="11.9" y="0">, F</tspan><tspan class="cls-38" x="20.79" y="0">i2</tspan><tspan x="24.24" y="0">)</tspan></text><text class="cls-36" transform="translate(497.38 244.29)">(<tspan class="cls-17" x="2.66" y="0">D</tspan><tspan class="cls-38" x="8.44" y="0">i2</tspan><tspan class="cls-17" x="11.9" y="0">, F</tspan><tspan class="cls-38" x="20.79" y="0">i2</tspan><tspan x="24.24" y="0">)</tspan></text><text class="cls-40" transform="translate(258.12 285.75) rotate(-70.72)">1<tspan class="cls-17" x="3.5" y="0">–c</tspan></text><text class="cls-42" transform="translate(419.61 253.41) rotate(-70.72)"><tspan class="cls-10">c–</tspan><tspan class="cls-20" x="6.61" y="0">1</tspan></text><text class="cls-40" transform="translate(414.44 271.25) rotate(-70.72)">2<tspan class="cls-17" x="3.5" y="0">–c</tspan></text><text class="cls-43" transform="translate(267.47 259.32) rotate(-70.72)">c</text><text class="cls-40" transform="translate(376.29 202.83) rotate(-55.8)">1<tspan class="cls-17" x="3.5" y="0">–c</tspan></text><text class="cls-43" transform="translate(365.38 215.56) rotate(-55.8)">c</text><text class="cls-40" transform="matrix(0.99, -0.1, 0.1, 0.99, 300.21, 231.59)">1<tspan class="cls-17" x="3.5" y="0">–c</tspan></text><text class="cls-43" transform="translate(289.14 232.38) rotate(-2.87)">c</text><text class="cls-40" transform="matrix(0.99, -0.1, 0.1, 0.99, 310.14, 242.81)">1<tspan class="cls-17" x="3.5" y="0">–c</tspan></text><text class="cls-43" transform="translate(330.93 241.41) rotate(-2.87)">c</text><text class="cls-44" transform="translate(283.95 215.96)">(<tspan class="cls-17" x="3.81" y="0" xml:space="preserve">        ,        </tspan><tspan x="52.47" y="0">)</tspan></text><text class="cls-45" transform="translate(288.37 211.49)"><tspan class="cls-10">D</tspan><tspan class="cls-46" x="4.9" y="0">i1</tspan><tspan class="cls-20" x="7.82" y="0">+</tspan><tspan class="cls-10" x="11.65" y="0">D</tspan><tspan class="cls-46" x="16.54" y="0">i2</tspan><tspan class="cls-47" x="19.47" y="0" xml:space="preserve">     F</tspan><tspan class="cls-48" x="32.08" y="0">i1</tspan><tspan class="cls-49" x="35.01" y="0">+F</tspan><tspan class="cls-48" x="43.73" y="0">i2</tspan></text><text class="cls-50" transform="translate(296.8 219.61)"><tspan xml:space="preserve">2              2</tspan></text><line class="cls-51" x1="287.61" y1="213.31" x2="308.21" y2="213.31"/><line class="cls-51" x1="315.54" y1="213.31" x2="336.14" y2="213.31"/><text class="cls-52" transform="translate(432.39 216.08)">(<tspan class="cls-17" x="3.7" y="0" xml:space="preserve">        ,        </tspan><tspan x="50.88" y="0">)</tspan></text><text class="cls-53" transform="translate(436.67 211.76)"><tspan class="cls-10">D</tspan><tspan class="cls-54" x="4.75" y="0">i1</tspan><tspan class="cls-55" x="7.59" y="0">+</tspan><tspan class="cls-56" x="11.29" y="0">D</tspan><tspan class="cls-54" x="16.04" y="0">i2</tspan><tspan class="cls-10" x="18.88" y="0" xml:space="preserve">     F</tspan><tspan class="cls-54" x="31.11" y="0">i1</tspan><tspan class="cls-57" x="33.95" y="0">+F</tspan><tspan class="cls-54" x="42.4" y="0">i2</tspan></text><text class="cls-58" transform="translate(444.84 219.62)"><tspan xml:space="preserve">2              2</tspan></text><line class="cls-51" x1="435.93" y1="213.52" x2="455.91" y2="213.52"/><line class="cls-51" x1="463.02" y1="213.52" x2="482.99" y2="213.52"/><line class="cls-59" x1="316.68" y1="220.39" x2="313.85" y2="228.86"/><polygon class="cls-2" points="313.32 228.16 313.15 230.96 314.7 228.62 313.32 228.16"/><line class="cls-59" x1="463.5" y1="220.56" x2="460.84" y2="232.27"/><polygon class="cls-2" points="460.25 231.63 460.35 234.43 461.66 231.95 460.25 231.63"/><text class="cls-60" transform="translate(270.05 278.73)"><tspan class="cls-10">P</tspan><tspan class="cls-61" x="4.89" y="0">1</tspan></text><text class="cls-62" transform="translate(399.89 293.31)"><tspan class="cls-10">P</tspan><tspan class="cls-63" x="4.89" y="0">1</tspan></text><text class="cls-62" transform="translate(423.39 264.4)"><tspan class="cls-10">P</tspan><tspan class="cls-63" x="4.89" y="0">2</tspan></text><text class="cls-62" transform="translate(491.52 219.41)"><tspan class="cls-10">P</tspan><tspan class="cls-63" x="4.89" y="0">2</tspan></text><text class="cls-62" transform="translate(474.12 231.59)"><tspan class="cls-10">P</tspan><tspan class="cls-63" x="4.89" y="0">3</tspan></text><text class="cls-62" transform="translate(437.88 249.29)"><tspan class="cls-10">P</tspan><tspan class="cls-63" x="4.89" y="0">3</tspan></text><text class="cls-62" transform="translate(461.57 256.38)"><tspan class="cls-10">P</tspan><tspan class="cls-63" x="4.89" y="0">4</tspan><tspan class="cls-20" x="7.11" y="0">, </tspan><tspan class="cls-10" x="11.11" y="0">P</tspan><tspan class="cls-63" x="16" y="0">4</tspan></text><text class="cls-64" transform="translate(358.29 198.11)"><tspan class="cls-10">P</tspan><tspan class="cls-65" x="4.89" y="0">1</tspan></text><text class="cls-62" transform="translate(524.96 201.44)"><tspan class="cls-10">P</tspan><tspan class="cls-63" x="4.89" y="0">1</tspan></text><text class="cls-66" transform="translate(267.52 230.96)"><tspan class="cls-10">P</tspan><tspan class="cls-67" x="4.89" y="0">2</tspan><tspan class="cls-10" x="7.11" y="0">, P</tspan><tspan class="cls-67" x="16" y="0">3</tspan></text><text class="cls-68" transform="translate(352.79 230.26)"><tspan class="cls-10">P</tspan><tspan class="cls-69" x="4.89" y="0">2</tspan><tspan class="cls-10" x="7.11" y="0">, P</tspan><tspan class="cls-69" x="16" y="0">3</tspan></text><text class="cls-70" transform="translate(298.12 243.82)"><tspan class="cls-10">P</tspan><tspan class="cls-71" x="4.89" y="0">4</tspan></text><text class="cls-72" transform="translate(320.2 230.56)"><tspan class="cls-10">P</tspan><tspan class="cls-73" x="4.89" y="0">4</tspan></text><text class="cls-42" transform="translate(425.34 236.83) rotate(-4.16)"><tspan class="cls-10">c–</tspan><tspan class="cls-20" x="6.61" y="0">1</tspan></text><text class="cls-42" transform="translate(482.32 244.6) rotate(-4.22)"><tspan class="cls-10">c–</tspan><tspan class="cls-20" x="6.61" y="0">1</tspan></text><text class="cls-40" transform="translate(444.73 235.72) rotate(-4.16)">2<tspan class="cls-17" x="3.5" y="0">–c</tspan></text><text class="cls-40" transform="translate(467.29 245.61) rotate(-4.22)">2<tspan class="cls-17" x="3.5" y="0">–c</tspan></text><text class="cls-42" transform="translate(502.59 236.82) rotate(-60.1)"><tspan class="cls-10">c–</tspan><tspan class="cls-20" x="6.61" y="0">1</tspan></text><text class="cls-40" transform="translate(514.3 218.64) rotate(-60.1)">2<tspan class="cls-17" x="3.5" y="0">–c</tspan></text><line class="cls-74" x1="465.25" y1="249.77" x2="461.58" y2="242.32"/><polygon class="cls-15" points="462.45 242.44 460.6 240.33 461.15 243.08 462.45 242.44"/><line class="cls-74" x1="275.46" y1="262.72" x2="269.54" y2="271.56"/><polygon class="cls-15" points="269.21 270.74 268.3 273.4 270.42 271.55 269.21 270.74"/><text class="cls-75" transform="matrix(0.37, 0.14, -0.36, 0.93, 253.49, 268.2)">{</text><text class="cls-3" transform="translate(231.62 244.29)">Intersection</text><line class="cls-59" x1="266.45" y1="242.81" x2="272.8" y2="239.16"/><polygon class="cls-2" points="272.74 240.04 274.72 238.06 272.01 238.78 272.74 240.04"/><text class="cls-32" transform="translate(343.58 316.05)">(2) Bézier curve definition</text><path class="cls-5" d="M243.18,424.24c9.5-29.84,8.33-46.19,68.83-60"/><path class="cls-5" d="M102.43,396.59c9.19-19.55,20.72-28.69,56.36-36.78"/><path class="cls-76" d="M45.86,446.65c35.82-11,47.39-23.36,56.57-49.93"/><line class="cls-33" x1="146.64" y1="407.35" x2="149.93" y2="361.77"/><line class="cls-33" x1="394.96" y1="430.76" x2="397.87" y2="407.17"/><line class="cls-33" x1="287.52" y1="418.35" x2="294.16" y2="371.1"/><line class="cls-77" x1="153.56" y1="402.56" x2="102.44" y2="406.92"/><line class="cls-35" x1="305.19" y1="365.88" x2="286.47" y2="388.39"/><line class="cls-35" x1="102.43" y1="412.5" x2="63.79" y2="445.1"/><path class="cls-5" d="M305.42,365.82l-7.24,8.6c-2.54,2.94-6,10.86-7.19,19.27-.95,6.89-3.47,24.66-3.47,24.66,3.75-2,9-4.94,11.38-32.35l1.82-18.8"/><path class="cls-5" d="M451.75,367.23h0c-39.31,10.41-38.28,22.36-43.8,45.27"/><line class="cls-5" x1="451.75" y1="367.23" x2="475.53" y2="403.69"/><line class="cls-77" x1="397.87" y1="407.17" x2="400.26" y2="406.42"/><line class="cls-78" x1="402.15" y1="405.82" x2="460.79" y2="387.25"/><line class="cls-77" x1="461.74" y1="386.95" x2="464.12" y2="386.2"/><line class="cls-1" x1="53.94" y1="396.12" x2="169.07" y2="396.12"/><polygon class="cls-2" points="168.32 397.21 172.39 396.12 168.32 395.03 168.32 397.21"/><line class="cls-1" x1="102.44" y1="446.65" x2="102.44" y2="363.14"/><polygon class="cls-2" points="103.53 363.88 102.44 359.81 101.35 363.88 103.53 363.88"/><path class="cls-1" d="M149.93,361.72l-.73,9c-2.61,32.52-2.62,32.44-24.48,34.31-22.28,1.9-22.29,7.48-41.73,23.88"/><line class="cls-1" x1="359.16" y1="411.81" x2="474.29" y2="411.81"/><polygon class="cls-2" points="473.55 412.9 477.61 411.81 473.55 410.72 473.55 412.9"/><line class="cls-1" x1="215.33" y1="423.17" x2="315.06" y2="423.17"/><polygon class="cls-2" points="314.32 424.25 318.39 423.17 314.32 422.08 314.32 424.25"/><line class="cls-1" x1="407.95" y1="440.63" x2="407.95" y2="368.85"/><polygon class="cls-2" points="409.04 369.6 407.95 365.53 406.86 369.6 409.04 369.6"/><line class="cls-1" x1="243.17" y1="448" x2="243.17" y2="368.12"/><polygon class="cls-2" points="244.26 368.87 243.17 364.8 242.08 368.87 244.26 368.87"/><path class="cls-5" d="M364.15,438.81h0c39.3-6.05,38.27-13,43.79-26.31"/><line class="cls-5" x1="397.87" y1="407.17" x2="469.1" y2="393.82"/><circle class="cls-15" cx="102.44" cy="406.92" r="1.65"/><circle class="cls-15" cx="124.72" cy="405.02" r="1.65"/><circle class="cls-2" cx="146.94" cy="403.23" r="1.65"/><circle class="cls-2" cx="149.93" cy="361.77" r="1.65"/><circle class="cls-2" cx="300.51" cy="367.27" r="1.65"/><circle class="cls-79" cx="305.24" cy="365.82" r="1.65"/><circle class="cls-2" cx="394.96" cy="430.76" r="1.65"/><circle class="cls-15" cx="287.52" cy="418.35" r="1.65"/><circle class="cls-15" cx="469.1" cy="393.82" r="1.65"/><circle class="cls-15" cx="397.87" cy="407.17" r="1.65"/><circle class="cls-15" cx="102.43" cy="412.5" r="1.65"/><circle class="cls-15" cx="82.99" cy="428.9" r="1.65"/><text class="cls-32" transform="translate(58.28 458.54)">(1) Pinching to envelope transation</text><text class="cls-32" transform="translate(213.02 458.54)">(2) Reload before reaching pinching line</text><text class="cls-32" transform="translate(377.14 458.54)">(3)<tspan class="cls-80" x="10.49" y="0"> </tspan><tspan class="cls-81" x="12.58" y="0">T</tspan><tspan class="cls-82" x="17.45" y="0">a</tspan><tspan class="cls-83" x="21.45" y="0">r</tspan><tspan x="24.28" y="0">get lower than pinching line</tspan></text><text class="cls-84" transform="translate(77.05 445.84)">K<tspan class="cls-85" x="5.34" y="0">r</tspan></text><polygon class="cls-6" points="75.03 440.36 69.76 444.8 75.03 444.8 75.03 440.36"/><text class="cls-3" transform="translate(113.17 425.23)">Bézier curve connection</text><text class="cls-3" transform="translate(132.89 413.37)">(Mid point)</text><text class="cls-3" transform="translate(158.79 404.23)">Displacement</text><text class="cls-3" transform="translate(297.96 430.55)">Displacement</text><text class="cls-3" transform="translate(456.32 418.97)">Displacement</text><text class="cls-3" transform="translate(259.16 413.93)">Reload</text><text class="cls-3" transform="translate(99.75 375.57) rotate(-90)">Force</text><text class="cls-3" transform="translate(239.75 379.95) rotate(-90)">Force</text><text class="cls-3" transform="translate(404.47 380.58) rotate(-90)">Force</text><text class="cls-86" transform="translate(45 436.95)">T<tspan class="cls-87" x="3.79" y="0">angent</tspan></text><text class="cls-88" transform="translate(124.34 413.66)"><tspan class="cls-10">P</tspan><tspan class="cls-89" x="4.89" y="0">1</tspan></text><line class="cls-59" x1="116.46" y1="419.65" x2="113.29" y2="411.16"/><polygon class="cls-2" points="114.14 411.37 112.51 409.08 112.78 411.88 114.14 411.37"/><line class="cls-59" x1="279.86" y1="412.5" x2="284.15" y2="415.99"/><polygon class="cls-2" points="283.31 416.24 285.87 417.39 284.23 415.11 283.31 416.24"/><line class="cls-59" x1="60.33" y1="437.83" x2="64.44" y2="441.18"/><polygon class="cls-2" points="63.6 441.43 66.16 442.58 64.51 440.31 63.6 441.43"/><text class="cls-88" transform="translate(104.09 404.74)"><tspan class="cls-10">P</tspan><tspan class="cls-89" x="4.89" y="0">2</tspan></text><text class="cls-88" transform="translate(103.45 419.65)"><tspan class="cls-10">P</tspan><tspan class="cls-89" x="4.89" y="0">3</tspan></text><text class="cls-88" transform="translate(85.01 433.36)"><tspan class="cls-10">P</tspan><tspan class="cls-89" x="4.89" y="0">4</tspan></text><text class="cls-90" transform="translate(219.68 147.29)">(a) Envelope Models</text><text class="cls-90" transform="translate(218.78 335.29)">(b) Hysteretic Models</text><text class="cls-90" transform="translate(220.9 482.29)">(c) Special Scenarios</text><path class="cls-59" d="M467.44,385.54c4.06-.62,5.83,2.58,5,5.25"/><polygon class="cls-2" points="472 389.97 471.28 392.68 473.26 390.69 472 389.97"/></g><g id="arrow"><line class="cls-1" x1="104.88" y1="299.45" x2="104.88" y2="162.22"/><polygon class="cls-2" points="106.33 163.21 104.88 157.79 103.42 163.21 106.33 163.21"/><line class="cls-1" x1="12.86" y1="239.8" x2="212.28" y2="239.8"/><polygon class="cls-2" points="211.29 241.25 216.71 239.8 211.29 238.35 211.29 241.25"/><text class="cls-3" transform="translate(101.29 180.3) rotate(-90)">Force</text><text class="cls-3" transform="translate(174.8 248.89)">Displacement</text><text class="cls-91" transform="translate(95.04 247.13)">O</text><path class="cls-5" d="M185.17,169.83h0c-72,16.08-70.15,34.56-80.27,70"/><line class="cls-5" x1="185.17" y1="169.83" x2="202.33" y2="184"/><path class="cls-76" d="M24.59,292.2h0c72.05-12.05,70.15-25.89,80.28-52.4"/><path class="cls-5" d="M24.58,292.2h0c46.94-7.85,62.49-16.45,70.43-28.83"/><line class="cls-92" x1="136.29" y1="186.2" x2="135.95" y2="188.68"/><line class="cls-93" x1="135.69" y1="190.59" x2="128.6" y2="243.07"/><line class="cls-92" x1="128.47" y1="244.03" x2="128.14" y2="246.5"/><line class="cls-94" x1="140.58" y1="184" x2="139.41" y2="186.21"/><line class="cls-95" x1="138.46" y1="188" x2="118.96" y2="224.64"/><line class="cls-94" x1="118.49" y1="225.53" x2="117.31" y2="227.74"/><line class="cls-94" x1="82.1" y1="258.19" x2="80.93" y2="260.39"/><line class="cls-96" x1="80.06" y1="262.03" x2="71.39" y2="278.33"/><line class="cls-94" x1="70.96" y1="279.15" x2="69.79" y2="281.35"/><line class="cls-97" x1="128.14" y1="246.5" x2="125.67" y2="246.87"/><line class="cls-98" x1="123.73" y1="247.16" x2="104.4" y2="250.07"/><line class="cls-97" x1="103.44" y1="250.21" x2="100.97" y2="250.58"/><line class="cls-97" x1="117.31" y1="227.74" x2="114.84" y2="228.11"/><line class="cls-99" x1="112.92" y1="228.4" x2="86.94" y2="232.3"/><line class="cls-97" x1="85.98" y1="232.45" x2="83.5" y2="232.82"/><line class="cls-92" x1="83.5" y1="232.82" x2="82.98" y2="235.26"/><line class="cls-100" x1="82.57" y1="237.19" x2="74.16" y2="276.78"/><line class="cls-92" x1="73.95" y1="277.74" x2="73.43" y2="280.19"/><line class="cls-92" x1="169.2" y1="173.71" x2="168.68" y2="176.15"/><line class="cls-101" x1="168.26" y1="178.16" x2="153.65" y2="247.58"/><line class="cls-92" x1="153.44" y1="248.58" x2="152.93" y2="251.03"/><line class="cls-92" x1="59" y1="230.28" x2="58.26" y2="232.67"/><line class="cls-102" x1="57.67" y1="234.54" x2="41.59" y2="285.94"/><line class="cls-92" x1="41.3" y1="286.87" x2="40.55" y2="289.26"/><line class="cls-97" x1="152.92" y1="251.03" x2="150.44" y2="251.28"/><line class="cls-103" x1="148.41" y1="251.48" x2="85.6" y2="257.83"/><line class="cls-97" x1="84.59" y1="257.94" x2="82.1" y2="258.19"/><line class="cls-97" x1="139.17" y1="223.52" x2="136.68" y2="223.73"/><line class="cls-104" x1="134.78" y1="223.89" x2="62.44" y2="229.99"/><line class="cls-97" x1="61.49" y1="230.07" x2="59" y2="230.28"/><line class="cls-94" x1="176.58" y1="171.84" x2="175.11" y2="173.86"/><line class="cls-105" x1="173.92" y1="175.51" x2="141.18" y2="220.68"/><line class="cls-94" x1="140.58" y1="221.5" x2="139.11" y2="223.52"/><path class="cls-5" d="M140.59,184,128.3,207.08c-11,20.66-11,20.66-19.1,21.88l-16.74,2.51c-9,1.35-9,1.66-13.5,22.73l-5.53,26"/><line class="cls-1" x1="95.05" y1="234.27" x2="95.01" y2="234.23"/><path class="cls-5" d="M136.28,186.26l-1.71,12.62c-6.43,47.62-6.43,47.62-18.85,49.49l-2.07.31C104.88,250,104.88,250,95,263.36"/><path class="cls-5" d="M169.2,173.71l-3,14.37C152.93,251,152.92,251,120.42,254.31l-10,1c-28.32,2.87-28.32,2.87-38,21.1l-2.63,4.93"/><path class="cls-5" d="M40.45,289.28l4.72-14.93C59,230.28,59,230.28,87.16,227.91L110.34,226c28.77-2.44,28.77-2.44,59.94-45.43l6.3-8.69"/><circle class="cls-2" cx="40.55" cy="289.26" r="1.87"/><circle class="cls-15" cx="176.58" cy="171.84" r="1.87"/><circle class="cls-15" cx="104.88" cy="249.99" r="1.87"/><circle class="cls-15" cx="104.88" cy="256.06" r="1.87"/><circle class="cls-15" cx="104.88" cy="229.61" r="1.87"/><circle class="cls-15" cx="104.88" cy="226.36" r="1.87"/><text class="cls-16" transform="translate(107.22 266.51)">(0<tspan class="cls-17" x="6.66" y="0">, –F</tspan><tspan class="cls-24" x="19.55" y="0">I</tspan><tspan class="cls-30" x="21.03" y="0">)</tspan></text><text class="cls-28" transform="translate(46.23 296.04)">(<tspan class="cls-17" x="2.66" y="0">D</tspan><tspan class="cls-18" x="8.44" y="0">un</tspan><tspan class="cls-17" x="12.89" y="0">, F</tspan><tspan class="cls-18" x="21.77" y="0">un</tspan><tspan class="cls-30" x="26.22" y="0">)</tspan></text><text class="cls-39" transform="translate(10.07 250)">Unloading<tspan x="21.78" y="9">line</tspan></text><text class="cls-28" transform="translate(31.22 306.92)">Unloading point</text><text class="cls-39" transform="translate(10.84 218.91)">Pinching line</text><text class="cls-39" transform="translate(165.42 230.56)">Reloading line</text><text class="cls-39" transform="translate(176.58 193.87)"><tspan class="cls-106">T</tspan><tspan x="4.33" y="0">a</tspan><tspan class="cls-107" x="7.88" y="0">r</tspan><tspan x="10.4" y="0">get point</tspan></text><text class="cls-16" transform="translate(174.4 167.33)">(<tspan class="cls-17" x="2.66" y="0">D</tspan><tspan class="cls-18" x="8.44" y="0">tar</tspan><tspan class="cls-108" x="13.13" y="0">, *</tspan><tspan class="cls-30" x="21.13" y="0">)</tspan></text><text class="cls-109" transform="translate(149.78 220.26)">K<tspan class="cls-18" x="5.34" y="0">r</tspan></text><text class="cls-16" transform="translate(82.25 220.26)">(0<tspan class="cls-17" x="6.66" y="0">, F</tspan><tspan class="cls-24" x="15.55" y="0">I</tspan><tspan x="17.03" y="0">)</tspan></text><text class="cls-109" transform="translate(27.03 277.52)">K<tspan class="cls-18" x="5.34" y="0">u</tspan></text><polygon class="cls-6" points="39.01 278.26 41.89 269.46 39.01 269.46 39.01 278.26"/><text class="cls-109" transform="translate(62.94 226.1)">K<tspan class="cls-18" x="5.34" y="0">p</tspan></text><polygon class="cls-6" points="72.08 227.03 88.37 225.67 72.08 225.67 72.08 227.03"/><polygon class="cls-6" points="148.29 215.5 145.22 219.73 148.29 219.73 148.29 215.5"/><line class="cls-1" x1="45.28" y1="247.34" x2="50.48" y2="244.2"/><polygon class="cls-2" points="50.4 245.61 53.51 242.37 49.2 243.62 50.4 245.61"/><line class="cls-1" x1="164.38" y1="228.1" x2="146.56" y2="222.72"/><polygon class="cls-2" points="147.66 221.83 143.17 221.69 146.98 224.06 147.66 221.83"/><line class="cls-1" x1="182.29" y1="186.26" x2="178.57" y2="177"/><polygon class="cls-2" points="179.94 177.3 177.25 173.71 177.79 178.17 179.94 177.3"/><line class="cls-1" x1="43.5" y1="300.21" x2="42.32" y2="295.31"/><polygon class="cls-2" points="43.64 295.81 41.5 291.86 41.38 296.35 43.64 295.81"/><line class="cls-1" x1="52.93" y1="220.52" x2="58.35" y2="225.76"/><polygon class="cls-2" points="56.97 226.04 60.89 228.22 58.58 224.37 56.97 226.04"/><text class="cls-39" transform="translate(153.77 265.13)">Bézier curve</text><line class="cls-1" x1="155.66" y1="258.19" x2="150.73" y2="249.27"/><polygon class="cls-2" points="152.13 249.4 149.01 246.17 150.09 250.53 152.13 249.4"/><text class="cls-32" transform="translate(85.39 316.05)">(1) Hystresis</text><line class="cls-1" x1="117.99" y1="202.54" x2="119.07" y2="201.1"/><polygon class="cls-2" points="121.19 198.27 119.83 203.47 118.91 201.31 116.58 201.03 121.19 198.27"/><line class="cls-1" x1="129.88" y1="230.88" x2="129.76" y2="231.59"/><polygon class="cls-2" points="129.15 235.06 128 229.81 129.8 231.33 132.01 230.52 129.15 235.06"/><line class="cls-1" x1="79.57" y1="251.35" x2="79.69" y2="250.79"/><polygon class="cls-2" points="80.43 247.34 81.37 252.63 79.64 251.05 77.4 251.78 80.43 247.34"/><line class="cls-1" x1="150.02" y1="179.92" x2="150.7" y2="179.68"/><polygon class="cls-2" points="154.03 178.5 150.02 182.07 150.46 179.77 148.67 178.24 154.03 178.5"/><line class="cls-1" x1="156.35" y1="229.93" x2="155.52" y2="232.5"/><polygon class="cls-2" points="154.44 235.86 154.03 230.5 155.6 232.25 157.9 231.75 154.44 235.86"/><line class="cls-1" x1="61.11" y1="284.24" x2="60.31" y2="284.46"/><polygon class="cls-2" points="56.91 285.43 61.15 282.12 60.56 284.39 62.25 286.03 56.91 285.43"/><line class="cls-1" x1="52.49" y1="251.86" x2="52.95" y2="250.64"/><polygon class="cls-2" points="54.19 247.34 54.34 252.71 52.85 250.89 50.53 251.28 54.19 247.34"/><text class="cls-110" transform="translate(114.55 197.98)">1</text><text class="cls-110" transform="translate(132.89 235.48)">2</text><text class="cls-110" transform="translate(157.85 236.15)">5</text><text class="cls-110" transform="translate(57.54 280.19)">6</text><text class="cls-110" transform="translate(56.48 252.18)">7</text><text class="cls-110" transform="translate(73.43 252.18)">3</text><text class="cls-110" transform="translate(149.78 177.03)">4</text></g></g></svg>